<svg width="256" height="256" viewBox="0 0 256 256" xmlns="http://www.w3.org/2000/svg">
  <rect width="256" height="256" rx="58" fill="#0D1B3E"/>

  <rect x="52" y="58" width="94" height="12" fill="#FFFFFF"/>
  <rect x="62" y="70" width="24" height="5" fill="#FFFFFF"/>
  <rect x="66" y="75" width="18" height="57" fill="#FFFFFF"/>
  <rect x="62" y="132" width="24" height="5" fill="#FFFFFF"/>
  <rect x="112" y="70" width="24" height="5" fill="#FFFFFF"/>
  <rect x="113" y="75" width="18" height="57" fill="#FFFFFF"/>
  <rect x="112" y="132" width="24" height="5" fill="#FFFFFF"/>
  <rect x="84" y="96" width="30" height="10" fill="#C9A84C"/>
  <rect x="56" y="138" width="86" height="8" fill="#FFFFFF"/>
  <rect x="48" y="146" width="102" height="6" fill="#FFFFFF"/>

  <path fill-rule="evenodd" fill="#C9A84C" d="
    M 207,105
    A 31,31 0 1 0 145,105
    A 31,31 0 1 0 207,105
    Z
    M 194,105
    A 18,18 0 1 1 158,105
    A 18,18 0 1 1 194,105
    Z
  "/>
  <line x1="191" y1="122" x2="220" y2="151" stroke="#C9A84C" stroke-width="11" stroke-linecap="round"/>
</svg>
